<?xml version="1.0" encoding="utf-8"?>
<!-- Generator: Adobe Illustrator 16.0.0, SVG Export Plug-In . SVG Version: 6.00 Build 0)  -->
<!DOCTYPE svg PUBLIC "-//W3C//DTD SVG 1.1//EN" "http://www.w3.org/Graphics/SVG/1.1/DTD/svg11.dtd">
<svg version="1.1" id="Layer_1" xmlns="http://www.w3.org/2000/svg" xmlns:xlink="http://www.w3.org/1999/xlink" x="0px" y="0px"
	 width="19.4px" height="33.125px" viewBox="0 0 19.4 33.125" enable-background="new 0 0 19.4 33.125" xml:space="preserve">
<g id="KBJQ3g_1_">
	<g>
		<g>
			<path fill-rule="evenodd" clip-rule="evenodd" stroke="#000000" stroke-width="0.5" stroke-miterlimit="10" d="M5.369,22.476
				c-0.314-0.177-0.411-0.74-0.607-1.126c0.418-0.125,0.839-0.363,1.255-0.356c2.126,0.035,4.252,0.157,6.378,0.181
				c0.258,0.003,0.555-0.733,0.682-1.012c1.017-2.244,1.966-4.52,2.978-6.766c0.921-2.042,1.197-4.138,0.555-6.293
				c-0.972-3.254-4.519-5.392-8.119-4.813C5.294,2.804,2.594,5.972,2.557,9.193c-0.04,3.385,1.717,6.001,3.004,8.829
				c0.212,0.466,1.256,0.679,1.946,0.771c0.971,0.128,1.971,0.032,2.984,0.032c0.199-3.162,0.384-6.104,0.569-9.035
				c-0.563,0.051-1.145,0.104-1.834,0.167c0.114,1.721,0.241,3.571,0.354,5.421c0.024,0.398,0.083,0.827-0.035,1.189
				c-0.073,0.224-0.433,0.438-0.695,0.484c-0.146,0.025-0.459-0.272-0.514-0.475c-0.145-0.539-0.213-1.102-0.27-1.66
				C7.875,13.011,7.716,11.1,7.513,9.193C7.411,8.236,7.834,7.712,8.715,8.073c1.03,0.422,1.923,0.332,2.926-0.01
				c0.78-0.267,1.124-0.002,1.035,0.998c-0.294,3.28-0.48,6.57-0.617,9.861c-0.04,0.972-0.302,1.4-1.314,1.32
				c-1.64-0.13-3.29-0.147-4.924-0.324C5.32,19.863,4.6,19.562,4.422,19.173c-1.068-2.33-2.317-4.644-2.927-7.105
				C0.168,6.714,2.551,2.203,7.967,0.979c5.51-1.246,10.354,2.978,10.383,8.057c0.017,2.857-1.052,5.258-2.296,7.685
				c-0.612,1.194-1.133,2.829-1.416,4.126c-0.295,1.352-1.117,1.682-2.238,1.755c-0.756,0.05-1.517,0.01-2.329,0.319"/>
		</g>
	</g>
</g>
<g>
	<g>
		<path d="M6.324,22.511c-0.333,0.969-1.403,0.605-0.465,0.787c0.342,0.066,0.678,0.165,1.012,0.261
			c1.029,0.294,2.047,0.627,3.068,0.947c0.935,0.293,3.396,1.485,4.089,0.227c0.743-1.35-1.437-3.011-2.225-1.58
			c0.461-0.836,1.341-0.326,0.476-0.557c-0.386-0.104-0.768-0.223-1.149-0.34c-1.024-0.313-2.043-0.645-3.068-0.955
			c-1.122-0.34-3.64-1.456-4.215,0.218C3.346,22.975,5.771,24.119,6.324,22.511L6.324,22.511z"/>
	</g>
</g>
<g>
	<g>
		<path d="M4.92,25.671c0.243,0.342,0.79,0.451,1.164,0.567c0.876,0.271,1.761,0.514,2.645,0.757
			c0.937,0.258,1.875,0.507,2.818,0.742c0.455,0.113,1.024,0.334,1.505,0.263c1.224-0.184,0.64-2.05-0.467-1.885
			c0.32-0.048-0.015-0.025-0.144-0.052c-0.298-0.06-0.593-0.135-0.888-0.207c-0.785-0.193-1.565-0.404-2.345-0.617
			c-0.756-0.206-1.51-0.42-2.261-0.642c-0.234-0.068-0.467-0.141-0.7-0.215c-0.489-0.155-0.301-0.282-0.004,0.136
			C5.505,23.479,4.196,24.65,4.92,25.671L4.92,25.671z"/>
	</g>
</g>
<g>
	<g>
		<path d="M5.521,25.863c1.316-0.146,2.63-0.326,3.943-0.507c0.909-0.124,3.172-0.052,3.798-0.88
			c0.507-0.67-0.676-1.573-1.213-0.861c0.211-0.279,0.233-0.186-0.058-0.123c-0.328,0.07-0.662,0.122-0.994,0.176
			c-0.817,0.132-1.639,0.243-2.46,0.354c-1.12,0.151-2.242,0.304-3.366,0.429C4.249,24.553,4.689,25.956,5.521,25.863L5.521,25.863z
			"/>
	</g>
</g>
<g>
	<g>
		<path d="M5.388,28.486c0.554,0.778,2.523,0.958,3.346,1.184c1.07,0.295,2.661,1.045,3.796,0.877
			c1.225-0.183,0.64-2.049-0.467-1.885c0.32-0.047,0.048-0.017-0.092-0.044c-0.257-0.052-0.512-0.117-0.766-0.18
			c-0.667-0.164-1.33-0.343-1.992-0.523c-0.652-0.179-1.303-0.362-1.951-0.554c-0.202-0.06-0.404-0.122-0.604-0.186
			c-0.462-0.146-0.233-0.243,0.054,0.158C5.972,26.296,4.662,27.467,5.388,28.486L5.388,28.486z"/>
	</g>
</g>
<g>
	<g>
		<path d="M7.355,31.703c0.355,0.39,0.951,0.474,1.436,0.606c0.464,0.127,1.046,0.378,1.541,0.324
			c1.23-0.134,0.643-2.005-0.467-1.885c0.386-0.041,0.056-0.028-0.112-0.069c-0.263-0.063-0.281-0.071-0.482-0.126
			c-0.328-0.089-0.701-0.153-1.01-0.3c0.141,0.101,0.281,0.201,0.422,0.302c-0.001-0.002-0.002-0.003-0.004-0.005
			c-0.33-0.361-0.914-0.53-1.318-0.178C6.968,30.714,7.025,31.341,7.355,31.703L7.355,31.703z"/>
	</g>
</g>
<g>
	<g>
		<path d="M6.021,28.671c1.137-0.124,2.271-0.282,3.403-0.438c0.823-0.113,2.772-0.05,3.337-0.798
			c0.507-0.67-0.675-1.572-1.213-0.861c0.197-0.262,0.277-0.201,0.01-0.144c-0.284,0.061-0.572,0.104-0.858,0.151
			c-0.706,0.114-1.415,0.21-2.124,0.307c-0.967,0.131-1.936,0.264-2.906,0.37C4.749,27.359,5.189,28.762,6.021,28.671L6.021,28.671z
			"/>
	</g>
</g>
</svg>
